<?xml version="1.0"?>
<svg xmlns="http://www.w3.org/2000/svg" viewBox="0 0 512 512" width="512" height="512"><g id="Solid"><path d="M20,142.928a8,8,0,0,0,8,0l97-56a8,8,0,0,0,0-13.856L28,17.072A8,8,0,0,0,16,24V136A8,8,0,0,0,20,142.928ZM40,51.713,89,80,40,108.287Z"/><path d="M464,168a72.1,72.1,0,0,1-64,71.545V271.7A104,104,0,0,0,392,64H143V96H392A72.081,72.081,0,0,1,464,168Z"/><path d="M48,344a72.1,72.1,0,0,1,64-71.545v-32.15A104,104,0,0,0,120,448H352V416H120A72.081,72.081,0,0,1,48,344Z"/><path d="M432,368a64,64,0,1,0,64,64A64.072,64.072,0,0,0,432,368Zm-2.1,91.682a8,8,0,0,1-5.783,2.87c-.121,0-.243.008-.363.008a8,8,0,0,1-5.656-2.343l-24-24L405.412,424.9l17.806,17.805,34.391-41.27L469.9,411.682Z"/><path d="M128,256A128,128,0,1,0,256,128,128.145,128.145,0,0,0,128,256Zm78.928-100.995,8,13.856-13.856,8-8-13.856ZM144,248h16v16H144Zm19,70.928-8-13.856,13.857-8,8,13.856Zm5.857-104-13.857-8,8-13.856,13.857,8ZM206.928,357l-13.856-8,8-13.857,13.856,8ZM264,368H248V352h16Zm0-111.92a8,8,0,0,1-3.946,6.9l-56,32.919L195.946,282.1,248,251.5V176h16ZM368,264H352V248h16Zm-19-70.928,8,13.856-13.857,8-8-13.856Zm-5.857,104,13.857,8-8,13.856-13.857-8ZM305.072,155.005l13.856,8-8,13.856-13.856-8Zm5.856,180.133,8,13.857-13.856,8-8-13.857ZM264,160H248V144h16Z"/></g></svg>
